<svg xmlns="http://www.w3.org/2000/svg" viewBox="0 0 1200 120" preserveAspectRatio="none" fill="none">
  <polyline
    points="0,80 80,65 160,72 240,40 320,55 400,30 480,45 560,20 640,35 720,15 800,38 880,25 960,50 1040,35 1120,55 1200,45"
    stroke="#2D5F3F"
    stroke-width="2"
    stroke-linecap="round"
    stroke-linejoin="round"
    opacity="0.25"
  />
  <polyline
    points="0,90 80,78 160,85 240,55 320,68 400,45 480,58 560,35 640,50 720,30 800,52 880,40 960,62 1040,48 1120,65 1200,58"
    stroke="#2D5F3F"
    stroke-width="1.5"
    stroke-linecap="round"
    stroke-linejoin="round"
    opacity="0.15"
  />
</svg>
